<svg width="1200" height="760" viewBox="0 0 1200 760" xmlns="http://www.w3.org/2000/svg">
  <defs>
    <filter id="softShadow" x="-20%" y="-20%" width="140%" height="140%">
      <feDropShadow dx="0" dy="10" stdDeviation="10" flood-color="#0B162B" flood-opacity="0.08"/>
    </filter>
    <filter id="aiGlow" x="-50%" y="-50%" width="200%" height="200%">
      <feDropShadow dx="0" dy="0" stdDeviation="6" flood-color="#7c8cff" flood-opacity="0.45"/>
    </filter>
  </defs>

  <rect width="1200" height="760" rx="24" fill="transparent"/>

  <g transform="translate(-250.5 -229) scale(1.5)">
    <rect x="246" y="286" width="210" height="240" rx="14" fill="#f6f8fb" stroke="#e3e8ef"/>
    <rect x="476" y="286" width="412" height="112" rx="14" fill="#f6f8fb" stroke="#e3e8ef"/>
    <!-- <rect x="476" y="414" width="196" height="112" rx="14" fill="#f6f8fb" stroke="#e3e8ef"/> -->
    <rect x="692" y="414" width="196" height="112" rx="14" fill="#f6f8fb" stroke="#e3e8ef"/>

    <rect x="534" y="330" width="150" height="150" rx="18" fill="#eef2ff" stroke="#cfd7ff" stroke-width="3" filter="url(#aiGlow)"/>
    <circle cx="609" cy="405" r="20" fill="#6478ff"/>

    <g stroke="#8ba0ff" stroke-width="3" stroke-linecap="round" opacity="0.95" filter="url(#aiGlow)">
      <path d="M609 385V346"/>
      <path d="M609 425V464"/>
      <path d="M589 405H550"/>
      <path d="M629 405H668"/>
      <path d="M595 391L568 364"/>
      <path d="M623 419L650 446"/>
      <path d="M595 419L568 446"/>
      <path d="M623 391L650 364"/>
    </g>

    <g stroke="#9aaee6" stroke-width="2.5" fill="none" opacity="0.9">
      <path d="M358 339C454 339 486 367 534 395"/>
      <path d="M358 400C446 405 482 405 534 405"/>
      <path d="M358 459C458 452 488 435 534 415"/>
      <path d="M684 395C742 369 779 352 820 340"/>
      <path d="M684 405C734 418 748 444 770 470"/>
    </g>

    <g fill="#6f87ff">
      <circle cx="358" cy="339" r="6"/>
      <circle cx="358" cy="400" r="6"/>
      <circle cx="358" cy="459" r="6"/>
      <circle cx="820" cy="340" r="6"/>
      <circle cx="770" cy="470" r="6"/>
    </g>
  </g>
</svg>
