<svg width="1200" height="760" viewBox="0 0 1200 760" xmlns="http://www.w3.org/2000/svg">
  <defs>
    <filter id="baseShadow" x="-20%" y="-20%" width="140%" height="140%">
      <feDropShadow dx="0" dy="8" stdDeviation="8" flood-color="#0B162B" flood-opacity="0.08"/>
    </filter>
    <filter id="flowGlow" x="-50%" y="-50%" width="200%" height="200%">
      <feDropShadow dx="0" dy="0" stdDeviation="4" flood-color="#22d3ee" flood-opacity="0.45"/>
    </filter>
  </defs>

  <rect width="1200" height="760" rx="24" fill="transparent"/>

  <g transform="translate(0 -124)">
    <g transform="translate(600 504) scale(1.3) translate(-600 -504)">
      <g filter="url(#baseShadow)">
        <rect x="150" y="590" width="900" height="30" rx="18" fill="#ffffff"/>
        <rect x="218" y="420" width="168" height="138" rx="16" fill="#f8fafc" stroke="#dce4ee" stroke-width="3"/>
        <rect x="516" y="344" width="168" height="214" rx="16" fill="#f8fafc" stroke="#dce4ee" stroke-width="3"/>
        <rect x="814" y="420" width="168" height="138" rx="16" fill="#f8fafc" stroke="#dce4ee" stroke-width="3"/>
      </g>

      <g fill="#0B162B">
        <rect x="246" y="456" width="112" height="10" rx="5"/>
        <rect x="246" y="478" width="94" height="10" rx="5"/>
        <rect x="544" y="388" width="112" height="10" rx="5"/>
        <rect x="544" y="410" width="98" height="10" rx="5"/>
        <rect x="842" y="456" width="112" height="10" rx="5"/>
        <rect x="842" y="478" width="92" height="10" rx="5"/>
      </g>

      <g stroke="#94a3b8" stroke-width="3" fill="none" stroke-linecap="round">
        <path d="M386 488H516"/>
        <path d="M684 488H814"/>
        <path d="M302 558V590"/>
        <path d="M600 558V590"/>
        <path d="M898 558V590"/>
      </g>

      <g fill="#22d3ee" filter="url(#flowGlow)">
        <circle cx="438" cy="488" r="7"/>
        <circle cx="600" cy="488" r="7"/>
        <circle cx="762" cy="488" r="7"/>
        <circle cx="302" cy="572" r="7"/>
        <circle cx="600" cy="572" r="7"/>
        <circle cx="898" cy="572" r="7"/>
      </g>
    </g>
  </g>

</svg>
