<svg width="1200" height="760" viewBox="0 0 1200 760" xmlns="http://www.w3.org/2000/svg">
  <defs>
    <filter id="devShadow" x="-20%" y="-20%" width="140%" height="140%">
      <feDropShadow dx="0" dy="10" stdDeviation="10" flood-color="#0B162B" flood-opacity="0.09"/>
    </filter>
  </defs>

  <rect width="1200" height="760" rx="24" fill="transparent"/>


  <g filter="url(#devShadow)">
    <rect x="170" y="206" width="612" height="352" rx="20" fill="#f8fafc" stroke="#dce4ee" stroke-width="3"/>
    <rect x="170" y="206" width="612" height="52" rx="20" fill="#eef3f8"/>
    <circle cx="204" cy="232" r="7" fill="#93a4b8"/>
    <circle cx="225" cy="232" r="7" fill="#b1bdcb"/>
    <circle cx="246" cy="232" r="7" fill="#c8d1dc"/>

    <rect x="220" y="290" width="204" height="220" rx="14" fill="#ffffff" stroke="#e3eaf2" stroke-width="3"/>
    <rect x="454" y="290" width="280" height="64" rx="14" fill="#edf3ff" stroke="#d5def8" stroke-width="3"/>
    <rect x="454" y="372" width="280" height="138" rx="14" fill="#ffffff" stroke="#e3eaf2" stroke-width="3"/>

    <rect x="250" y="322" width="144" height="12" rx="6" fill="#b7c5d8"/>
    <rect x="250" y="344" width="120" height="12" rx="6" fill="#c5d1df"/>
    <rect x="250" y="390" width="144" height="86" rx="10" fill="#f3f6fb"/>

    <rect x="484" y="314" width="130" height="16" rx="8" fill="#93a8ff"/>
    <rect x="484" y="406" width="220" height="14" rx="7" fill="#c2cede"/>
    <rect x="484" y="430" width="190" height="14" rx="7" fill="#cdd7e4"/>
    <rect x="484" y="454" width="160" height="14" rx="7" fill="#d8e0ea"/>
  </g>

  <g filter="url(#devShadow)">
    <rect x="744" y="168" width="236" height="432" rx="34" fill="#f8fafc" stroke="#dce4ee" stroke-width="3"/>
    <rect x="832" y="186" width="60" height="8" rx="4" fill="#b9c6d6"/>
    <rect x="772" y="220" width="180" height="312" rx="18" fill="#ffffff" stroke="#e3eaf2" stroke-width="3"/>

    <rect x="798" y="252" width="128" height="16" rx="8" fill="#93a8ff"/>
    <rect x="798" y="276" width="128" height="106" rx="12" fill="#f1f5fb"/>
    <rect x="798" y="396" width="128" height="14" rx="7" fill="#c4cfdd"/>
    <rect x="798" y="420" width="102" height="14" rx="7" fill="#d0d9e5"/>

    <circle cx="862" cy="566" r="10" fill="#c4cfdd"/>
  </g>
</svg>
