<svg xmlns="http://www.w3.org/2000/svg" viewBox="0 0 24 24" fill="none">
  <path d="M5.2 16.9c3.9 2.4 9.2 2.9 13.6 1.3" stroke="#9ca3af" stroke-width="1.8" stroke-linecap="round"/>
  <path d="M17.7 19.2l2-2.9-3.4-.4" stroke="#9ca3af" stroke-width="1.8" stroke-linecap="round" stroke-linejoin="round"/>
  <path d="M7.2 12.6V8.2h1.2l1.3 2.4 1.3-2.4h1.2v4.4h-1V9.8l-1.2 2.2H9.2L8 9.8v2.8h-.8z" fill="#9ca3af"/>
  <path d="M13.4 12.6V8.2h1.9c1 0 1.7.5 1.7 1.4 0 .6-.3 1-.8 1.2l1 1.8h-1l-.9-1.6h-.8v1.6h-1.1zm1.1-2.4h.9c.4 0 .6-.2.6-.5s-.2-.5-.6-.5h-.9v1z" fill="#9ca3af"/>
</svg>
