<svg xmlns="http://www.w3.org/2000/svg" viewBox="0 0 24 24" fill="none">
  <rect x="3" y="4" width="18" height="16" rx="3" stroke="#9ca3af" stroke-width="1.8"/>
  <path d="M7 15.5V8.5h2.2c1.3 0 2.1.7 2.1 1.8 0 .8-.4 1.3-1 1.6.8.2 1.3.8 1.3 1.7 0 1.2-.9 1.9-2.3 1.9H7zm1.1-4.2h1c.7 0 1.2-.3 1.2-.9 0-.6-.5-.9-1.2-.9h-1v1.8zm0 3.2h1.2c.8 0 1.3-.3 1.3-1 0-.7-.5-1.1-1.3-1.1H8.1v2.1z" fill="#9ca3af"/>
  <path d="M12.8 15.5l2-3.4-1.8-3.6h1.2l1.2 2.5 1.2-2.5h1.2l-1.8 3.6 2 3.4h-1.2l-1.4-2.4-1.4 2.4h-1.2z" fill="#9ca3af"/>
</svg>
